# xmcd
#
# Track frame offsets:
#	182
#	12452
#	25237
#	37877
#	50552
#	63490
#	77105
#	89992
#	102982
#	115105
#	127907
#	140502
#	152952
#	165242
#	177445
#	190545
#	205367
#	217857
#
# Disc length: 3056 seconds
#
# Revision: 1
# Processed by: cddbd v1.4PL0 Copyright (c) Steve Scherf et al.
# Submitted via: audiograbber 1.81.02
#
DISCID=f50bee12
DTITLE=John Lee Williamson - Jazz and Blues Collection n°85
DYEAR=1996
DGENRE=Blues
TTITLE0=She Don't Love Me That Way
TTITLE1=Sonny Boy's Jump
TTITLE2=My Black Name Blues
TTITLE3=I Have Got to Go
TTITLE4=What's Getting Wrong With You
TTITLE5=Blues That Made Me Drunk
TTITLE6=Come On Baby and Take a Walk
TTITLE7=Miss Stella Brown Blues
TTITLE8=Desperado Woman Blues
TTITLE9=Win the War Blues
TTITLE10=Check Up On My Baby Blues
TTITLE11=G.M. and O. Blues
TTITLE12=We Got to Win
TTITLE13=Elevator Woman
TTITLE14=Shady Grove Blues
TTITLE15=Sloppy Drunk Blues
TTITLE16=Ground Hog Blues
TTITLE17=Black Panther Blues
EXTD=
EXTT0=
EXTT1=
EXTT2=
EXTT3=
EXTT4=
EXTT5=
EXTT6=
EXTT7=
EXTT8=
EXTT9=
EXTT10=
EXTT11=
EXTT12=
EXTT13=
EXTT14=
EXTT15=
EXTT16=
EXTT17=
PLAYORDER=
